<svg width="708" height="708" viewBox="0 0 708 708" fill="none" xmlns="http://www.w3.org/2000/svg">
<path d="M242.7 553.9H64.9V109.3H242.7V153.8H287.2V198.3H331.7V242.8H376.2V198.3H420.7V153.8H465V109.3H642.8V553.9H465V331.6H420.5V376.1H376V420.6H331.5V376.1H287V331.6H242.5V553.9H242.7Z" fill="white"/>
<path d="M109.4 553.9H64.9V598.4H109.4V553.9Z" fill="#999999"/>
<path d="M153.8 553.9H109.3V598.4H153.8V553.9Z" fill="#999999"/>
<path d="M198.3 553.9H153.8V598.4H198.3V553.9Z" fill="#999999"/>
<path d="M242.8 553.9H198.3V598.4H242.8V553.9Z" fill="#999999"/>
<path d="M509.5 553.9H465V598.4H509.5V553.9Z" fill="#999999"/>
<path d="M554 553.9H509.5V598.4H554V553.9Z" fill="#999999"/>
<path d="M598.4 553.9H553.9V598.4H598.4V553.9Z" fill="#999999"/>
<path d="M642.9 553.9H598.4V598.4H642.9V553.9Z" fill="#999999"/>
<path d="M109.4 598.4H64.9V642.9H109.4V598.4Z" fill="#1A1A1A"/>
<path d="M153.8 598.4H109.3V642.9H153.8V598.4Z" fill="#1A1A1A"/>
<path d="M198.3 598.4H153.8V642.9H198.3V598.4Z" fill="#1A1A1A"/>
<path d="M242.8 598.4H198.3V642.9H242.8V598.4Z" fill="#1A1A1A"/>
<path d="M287.2 553.9H242.7V598.4H287.2V553.9Z" fill="#1A1A1A"/>
<path d="M287.2 509.5H242.7V554H287.2V509.5Z" fill="#1A1A1A"/>
<path d="M287.2 465H242.7V509.5H287.2V465Z" fill="#1A1A1A"/>
<path d="M287.2 420.6H242.7V465.1H287.2V420.6Z" fill="#1A1A1A"/>
<path d="M287.2 376.1H242.7V420.6H287.2V376.1Z" fill="#1A1A1A"/>
<path d="M331.7 420.6H287.2V465.1H331.7V420.6Z" fill="#1A1A1A"/>
<path d="M376.1 465H331.6V509.5H376.1V465Z" fill="#1A1A1A"/>
<path d="M420.6 420.6H376.1V465.1H420.6V420.6Z" fill="#1A1A1A"/>
<path d="M287.2 331.6H242.7V376.1H287.2V331.6Z" fill="#999999"/>
<path d="M331.7 376.1H287.2V420.6H331.7V376.1Z" fill="#999999"/>
<path d="M376.1 420.6H331.6V465.1H376.1V420.6Z" fill="#999999"/>
<path d="M420.6 376.1H376.1V420.6H420.6V376.1Z" fill="#999999"/>
<path d="M465.1 331.6H420.6V376.1H465.1V331.6Z" fill="#999999"/>
<path d="M465.1 376.1H420.6V420.6H465.1V376.1Z" fill="#1A1A1A"/>
<path d="M465.1 420.6H420.6V465.1H465.1V420.6Z" fill="#1A1A1A"/>
<path d="M465.1 465H420.6V509.5H465.1V465Z" fill="#1A1A1A"/>
<path d="M465.1 509.5H420.6V554H465.1V509.5Z" fill="#1A1A1A"/>
<path d="M465.1 553.9H420.6V598.4H465.1V553.9Z" fill="#1A1A1A"/>
<path d="M687.4 553.9H642.9V598.4H687.4V553.9Z" fill="#1A1A1A"/>
<path d="M64.9 553.9H20.4V598.4H64.9V553.9Z" fill="#1A1A1A"/>
<path d="M687.4 509.5H642.9V554H687.4V509.5Z" fill="#1A1A1A"/>
<path d="M64.9 509.5H20.4V554H64.9V509.5Z" fill="#1A1A1A"/>
<path d="M687.4 465H642.9V509.5H687.4V465Z" fill="#1A1A1A"/>
<path d="M64.9 465H20.4V509.5H64.9V465Z" fill="#1A1A1A"/>
<path d="M687.4 420.6H642.9V465.1H687.4V420.6Z" fill="#1A1A1A"/>
<path d="M64.9 420.6H20.4V465.1H64.9V420.6Z" fill="#1A1A1A"/>
<path d="M687.4 376.1H642.9V420.6H687.4V376.1Z" fill="#1A1A1A"/>
<path d="M64.9 376.1H20.4V420.6H64.9V376.1Z" fill="#1A1A1A"/>
<path d="M687.4 331.6H642.9V376.1H687.4V331.6Z" fill="#1A1A1A"/>
<path d="M64.9 331.6H20.4V376.1H64.9V331.6Z" fill="#1A1A1A"/>
<path d="M687.4 287.2H642.9V331.7H687.4V287.2Z" fill="#1A1A1A"/>
<path d="M64.9 287.2H20.4V331.7H64.9V287.2Z" fill="#1A1A1A"/>
<path d="M687.4 242.7H642.9V287.2H687.4V242.7Z" fill="#1A1A1A"/>
<path d="M64.9 242.7H20.4V287.2H64.9V242.7Z" fill="#1A1A1A"/>
<path d="M687.4 198.3H642.9V242.8H687.4V198.3Z" fill="#1A1A1A"/>
<path d="M64.9 198.3H20.4V242.8H64.9V198.3Z" fill="#1A1A1A"/>
<path d="M687.4 153.8H642.9V198.3H687.4V153.8Z" fill="#1A1A1A"/>
<path d="M64.9 153.8H20.4V198.3H64.9V153.8Z" fill="#1A1A1A"/>
<path d="M687.4 109.3H642.9V153.8H687.4V109.3Z" fill="#1A1A1A"/>
<path d="M64.9 109.3H20.4V153.8H64.9V109.3Z" fill="#1A1A1A"/>
<path d="M642.9 64.8999H598.4V109.4H642.9V64.8999Z" fill="#1A1A1A"/>
<path d="M109.4 64.8999H64.9V109.4H109.4V64.8999Z" fill="#1A1A1A"/>
<path d="M153.8 64.8999H109.3V109.4H153.8V64.8999Z" fill="#1A1A1A"/>
<path d="M198.3 64.8999H153.8V109.4H198.3V64.8999Z" fill="#1A1A1A"/>
<path d="M242.8 64.8999H198.3V109.4H242.8V64.8999Z" fill="#1A1A1A"/>
<path d="M287.2 109.3H242.7V153.8H287.2V109.3Z" fill="#1A1A1A"/>
<path d="M331.7 153.8H287.2V198.3H331.7V153.8Z" fill="#1A1A1A"/>
<path d="M376.1 198.3H331.6V242.8H376.1V198.3Z" fill="#1A1A1A"/>
<path d="M420.6 153.8H376.1V198.3H420.6V153.8Z" fill="#1A1A1A"/>
<path d="M465.1 109.3H420.6V153.8H465.1V109.3Z" fill="#1A1A1A"/>
<path d="M509.5 64.8999H465V109.4H509.5V64.8999Z" fill="#1A1A1A"/>
<path d="M554 64.8999H509.5V109.4H554V64.8999Z" fill="#1A1A1A"/>
<path d="M598.4 64.8999H553.9V109.4H598.4V64.8999Z" fill="#1A1A1A"/>
<path d="M509.5 598.4H465V642.9H509.5V598.4Z" fill="#1A1A1A"/>
<path d="M554 598.4H509.5V642.9H554V598.4Z" fill="#1A1A1A"/>
<path d="M598.4 598.4H553.9V642.9H598.4V598.4Z" fill="#1A1A1A"/>
<path d="M642.9 598.4H598.4V642.9H642.9V598.4Z" fill="#1A1A1A"/>
</svg>
